<svg width="30" height="30" viewBox="0 0 30 30" fill="none" xmlns="http://www.w3.org/2000/svg">
<g id="vuesax/bold/cloud-notif">
<g id="cloud-notif">
<path id="Vector" d="M26.5875 10.95C26.5875 12.225 26 13.375 25.05 14.125C24.3625 14.6875 23.475 15.025 22.5125 15.025C20.275 15.025 18.45 13.2 18.45 10.9625C18.45 9.85001 18.9 8.83751 19.65 8.10001V8.08751C20.3875 7.35001 21.4 6.88751 22.5125 6.88751C24.7625 6.88751 26.5875 8.71251 26.5875 10.95Z" fill="#FFC106"/>
<path id="Vector_2" d="M25.225 23.4125C23.9125 24.6125 22.225 25.275 20.4375 25.275H7.46251C4.03751 25.025 2.51251 22.3875 2.51251 20.0375C2.51251 17.9375 3.72501 15.6125 6.38751 14.9625C5.22501 10.4875 7.45001 7.36249 10.05 5.87499C12.625 4.41249 16.25 4.17499 18.975 6.18749C18.7375 6.36249 18.525 6.54999 18.3125 6.76249L17.775 7.32499V7.39999C17 8.41249 16.575 9.64999 16.575 10.95C16.575 14.225 19.25 16.8875 22.525 16.8875C23.875 16.8875 25.1875 16.425 26.2125 15.5875C26.4 15.4375 26.5875 15.275 26.75 15.1C27.9875 17.7 27.8125 21.15 25.225 23.4125Z" fill="#7CDCFF"/>
</g>
</g>
</svg>
